<?xml version="1.0" encoding="UTF-8" standalone="no"?>
<svg
   width="1.13em"
   height="1em"
   viewBox="0 0 576 512"
   version="1.1"
   id="svg4"
   sodipodi:docname="projects.svg"
   inkscape:version="1.1.2 (b8e25be833, 2022-02-05)"
   xmlns:inkscape="http://www.inkscape.org/namespaces/inkscape"
   xmlns:sodipodi="http://sodipodi.sourceforge.net/DTD/sodipodi-0.dtd"
   xmlns="http://www.w3.org/2000/svg"
   xmlns:svg="http://www.w3.org/2000/svg">
  <defs
     id="defs8" />
  <sodipodi:namedview
     id="namedview6"
     pagecolor="#ffffff"
     bordercolor="#666666"
     borderopacity="1.0"
     inkscape:pageshadow="2"
     inkscape:pageopacity="0.0"
     inkscape:pagecheckerboard="0"
     showgrid="false"
     inkscape:zoom="1.7050781"
     inkscape:cx="288.25659"
     inkscape:cy="256"
     inkscape:window-width="3440"
     inkscape:window-height="1411"
     inkscape:window-x="-9"
     inkscape:window-y="-9"
     inkscape:window-maximized="1"
     inkscape:current-layer="svg4" />
  <path
     fill="currentColor"
     d="M0 80c0-26.5 21.5-48 48-48h96c26.5 0 48 21.5 48 48v16h192V80c0-26.5 21.5-48 48-48h96c26.5 0 48 21.5 48 48v96c0 26.5-21.5 48-48 48h-96c-26.5 0-48-21.5-48-48v-16H192v16c0 1.7-.1 3.4-.3 5L272 288h96c26.5 0 48 21.5 48 48v96c0 26.5-21.5 48-48 48h-96c-26.5 0-48-21.5-48-48v-96c0-1.7.1-3.4.3-5L144 224H48c-26.5 0-48-21.5-48-48z"
     id="path2"
     style="fill:#ffffff" />
</svg>
