<?xml version="1.0" encoding="UTF-8" standalone="no"?>
<svg
   width="1em"
   height="1em"
   viewBox="0 0 24 24"
   version="1.1"
   id="svg4"
   sodipodi:docname="blog.svg"
   inkscape:version="1.1.2 (b8e25be833, 2022-02-05)"
   xmlns:inkscape="http://www.inkscape.org/namespaces/inkscape"
   xmlns:sodipodi="http://sodipodi.sourceforge.net/DTD/sodipodi-0.dtd"
   xmlns="http://www.w3.org/2000/svg"
   xmlns:svg="http://www.w3.org/2000/svg">
  <defs
     id="defs8" />
  <sodipodi:namedview
     id="namedview6"
     pagecolor="#ffffff"
     bordercolor="#666666"
     borderopacity="1.0"
     inkscape:pageshadow="2"
     inkscape:pageopacity="0.0"
     inkscape:pagecheckerboard="0"
     showgrid="false"
     inkscape:zoom="36.375"
     inkscape:cx="12"
     inkscape:cy="12"
     inkscape:window-width="3440"
     inkscape:window-height="1411"
     inkscape:window-x="-9"
     inkscape:window-y="-9"
     inkscape:window-maximized="1"
     inkscape:current-layer="svg4" />
  <path
     fill="white"
     d="m21.15 3.85l-.82.82l-.95-.96c-.39-.39-1.02-.39-1.42 0l-.96.96l-.96-.96c-.39-.39-1.03-.39-1.42 0l-.95.96l-.96-.96a.996.996 0 0 0-1.41 0l-.96.96l-.96-.96c-.39-.39-1.02-.39-1.42 0L7 4.67l-.96-.96c-.39-.39-1.03-.39-1.42 0l-.95.96l-.82-.82a.5.5 0 0 0-.85.36V19c0 1.1.9 2 2 2h16c1.1 0 2-.9 2-2V4.21a.5.5 0 0 0-.85-.36M11 19H4v-6h7zm9 0h-7v-2h7zm0-4h-7v-2h7zm0-4H4V8h16z"
     id="path2"
     style="fill:#000000" />
</svg>
