<?xml version="1.0" encoding="UTF-8" standalone="no"?>
<svg
   width="1em"
   height="1em"
   viewBox="0 0 24 24"
   version="1.1"
   id="svg4"
   sodipodi:docname="youtube.svg"
   inkscape:version="1.1.2 (b8e25be833, 2022-02-05)"
   xmlns:inkscape="http://www.inkscape.org/namespaces/inkscape"
   xmlns:sodipodi="http://sodipodi.sourceforge.net/DTD/sodipodi-0.dtd"
   xmlns="http://www.w3.org/2000/svg"
   xmlns:svg="http://www.w3.org/2000/svg">
  <defs
     id="defs8" />
  <sodipodi:namedview
     id="namedview6"
     pagecolor="#ffffff"
     bordercolor="#666666"
     borderopacity="1.0"
     inkscape:pageshadow="2"
     inkscape:pageopacity="0.0"
     inkscape:pagecheckerboard="0"
     showgrid="false"
     inkscape:zoom="36.375"
     inkscape:cx="12"
     inkscape:cy="12"
     inkscape:window-width="3440"
     inkscape:window-height="1411"
     inkscape:window-x="-9"
     inkscape:window-y="-9"
     inkscape:window-maximized="1"
     inkscape:current-layer="svg4" />
  <path
     fill="currentColor"
     d="m10 15l5.19-3L10 9zm11.56-7.83c.13.47.22 1.1.28 1.9c.07.8.1 1.49.1 2.09L22 12c0 2.19-.16 3.8-.44 4.83c-.25.9-.83 1.48-1.73 1.73c-.47.13-1.33.22-2.65.28c-1.3.07-2.49.1-3.59.1L12 19c-4.19 0-6.8-.16-7.83-.44c-.9-.25-1.48-.83-1.73-1.73c-.13-.47-.22-1.1-.28-1.9c-.07-.8-.1-1.49-.1-2.09L2 12c0-2.19.16-3.8.44-4.83c.25-.9.83-1.48 1.73-1.73c.47-.13 1.33-.22 2.65-.28c1.3-.07 2.49-.1 3.59-.1L12 5c4.19 0 6.8.16 7.83.44c.9.25 1.48.83 1.73 1.73"
     id="path2"
     style="fill:#000000" />
</svg>
