<?xml version="1.0" encoding="UTF-8" standalone="no"?>
<svg
   width="1.13em"
   height="1em"
   viewBox="0 0 576 512"
   version="1.1"
   id="svg4"
   sodipodi:docname="projects.svg"
   inkscape:version="1.1.2 (b8e25be833, 2022-02-05)"
   xmlns:inkscape="http://www.inkscape.org/namespaces/inkscape"
   xmlns:sodipodi="http://sodipodi.sourceforge.net/DTD/sodipodi-0.dtd"
   xmlns="http://www.w3.org/2000/svg"
   xmlns:svg="http://www.w3.org/2000/svg">
  <defs
     id="defs8" />
  <sodipodi:namedview
     id="namedview6"
     pagecolor="#ffffff"
     bordercolor="#666666"
     borderopacity="1.0"
     inkscape:pageshadow="2"
     inkscape:pageopacity="0.0"
     inkscape:pagecheckerboard="0"
     showgrid="false"
     inkscape:zoom="1.7050781"
     inkscape:cx="288.25659"
     inkscape:cy="256"
     inkscape:window-width="3440"
     inkscape:window-height="1411"
     inkscape:window-x="-9"
     inkscape:window-y="-9"
     inkscape:window-maximized="1"
     inkscape:current-layer="svg4" />
  <path
     fill="currentColor"
     d="m 21.113402,92.902635 c 0,-24.557274 19.923826,-44.4811 44.4811,-44.4811 H 154.5567 c 24.55728,0 44.4811,19.923826 44.4811,44.4811 V 107.72967 H 376.9622 V 92.902635 c 0,-24.557274 19.92382,-44.4811 44.4811,-44.4811 h 88.9622 c 24.55727,0 44.4811,19.923826 44.4811,44.4811 v 88.962195 c 0,24.55728 -19.92383,44.4811 -44.4811,44.4811 h -88.9622 c -24.55728,0 -44.4811,-19.92382 -44.4811,-44.4811 V 167.0378 H 199.0378 v 14.82703 c 0,1.57538 -0.0926,3.15075 -0.278,4.63345 l 74.41316,99.15579 h 88.9622 c 24.55728,0 44.4811,19.92382 44.4811,44.4811 v 88.9622 c 0,24.55727 -19.92382,44.48109 -44.4811,44.48109 h -88.9622 c -24.55726,0 -44.4811,-19.92382 -44.4811,-44.48109 v -88.9622 c 0,-1.57538 0.0926,-3.15075 0.27802,-4.63345 L 154.5567,226.34593 H 65.594502 c -24.557274,0 -44.4811,-19.92382 -44.4811,-44.4811 z"
     id="path2"
     style="fill:#ffffff;stroke-width:0.92669" />
</svg>
